<mxfile host="app.diagrams.net" modified="2021-01-10T05:06:02.780Z" agent="5.0 (Windows NT 10.0; Win64; x64) AppleWebKit/537.36 (KHTML, like Gecko) Chrome/87.0.4280.141 Safari/537.36" etag="HNc_WpuFL6LM7J9_KxnQ" version="14.1.9" type="github">
  <diagram id="C5RBs43oDa-KdzZeNtuy" name="Page-1">
    <mxGraphModel dx="1221" dy="578" grid="1" gridSize="10" guides="1" tooltips="1" connect="1" arrows="1" fold="1" page="1" pageScale="1" pageWidth="827" pageHeight="1169" math="0" shadow="0">
      <root>
        <mxCell id="WIyWlLk6GJQsqaUBKTNV-0" />
        <mxCell id="WIyWlLk6GJQsqaUBKTNV-1" parent="WIyWlLk6GJQsqaUBKTNV-0" />
        <mxCell id="RkBvAHb7BvuQ-5vAJaDf-0" value="Club" style="swimlane;fontStyle=1;align=center;verticalAlign=top;childLayout=stackLayout;horizontal=1;startSize=26;horizontalStack=0;resizeParent=1;resizeParentMax=0;resizeLast=0;collapsible=1;marginBottom=0;" vertex="1" parent="WIyWlLk6GJQsqaUBKTNV-1">
          <mxGeometry x="460" y="520" width="160" height="198" as="geometry" />
        </mxCell>
        <mxCell id="RkBvAHb7BvuQ-5vAJaDf-1" value="+ userList: list&#xa;+ activities: list&#xa;+ userActivitymap: map" style="text;strokeColor=none;fillColor=none;align=left;verticalAlign=top;spacingLeft=4;spacingRight=4;overflow=hidden;rotatable=0;points=[[0,0.5],[1,0.5]];portConstraint=eastwest;" vertex="1" parent="RkBvAHb7BvuQ-5vAJaDf-0">
          <mxGeometry y="26" width="160" height="54" as="geometry" />
        </mxCell>
        <mxCell id="RkBvAHb7BvuQ-5vAJaDf-2" value="" style="line;strokeWidth=1;fillColor=none;align=left;verticalAlign=middle;spacingTop=-1;spacingLeft=3;spacingRight=3;rotatable=0;labelPosition=right;points=[];portConstraint=eastwest;" vertex="1" parent="RkBvAHb7BvuQ-5vAJaDf-0">
          <mxGeometry y="80" width="160" height="8" as="geometry" />
        </mxCell>
        <mxCell id="RkBvAHb7BvuQ-5vAJaDf-3" value="+ addUser: bool&#xa;+ joinClub: bool&#xa;+ deleteUser: bool&#xa;+ addActivity: bool&#xa;+ joinActivity: bool&#xa;+ getClubInfo: map" style="text;strokeColor=none;fillColor=none;align=left;verticalAlign=top;spacingLeft=4;spacingRight=4;overflow=hidden;rotatable=0;points=[[0,0.5],[1,0.5]];portConstraint=eastwest;" vertex="1" parent="RkBvAHb7BvuQ-5vAJaDf-0">
          <mxGeometry y="88" width="160" height="110" as="geometry" />
        </mxCell>
        <mxCell id="RkBvAHb7BvuQ-5vAJaDf-4" value="User" style="swimlane;fontStyle=1;align=center;verticalAlign=top;childLayout=stackLayout;horizontal=1;startSize=26;horizontalStack=0;resizeParent=1;resizeParentMax=0;resizeLast=0;collapsible=1;marginBottom=0;" vertex="1" parent="WIyWlLk6GJQsqaUBKTNV-1">
          <mxGeometry x="150" y="520" width="160" height="208" as="geometry" />
        </mxCell>
        <mxCell id="RkBvAHb7BvuQ-5vAJaDf-5" value="+ userName: string&#xa;+ password: string&#xa;+ personalInfo: map" style="text;strokeColor=none;fillColor=none;align=left;verticalAlign=top;spacingLeft=4;spacingRight=4;overflow=hidden;rotatable=0;points=[[0,0.5],[1,0.5]];portConstraint=eastwest;" vertex="1" parent="RkBvAHb7BvuQ-5vAJaDf-4">
          <mxGeometry y="26" width="160" height="64" as="geometry" />
        </mxCell>
        <mxCell id="RkBvAHb7BvuQ-5vAJaDf-6" value="" style="line;strokeWidth=1;fillColor=none;align=left;verticalAlign=middle;spacingTop=-1;spacingLeft=3;spacingRight=3;rotatable=0;labelPosition=right;points=[];portConstraint=eastwest;" vertex="1" parent="RkBvAHb7BvuQ-5vAJaDf-4">
          <mxGeometry y="90" width="160" height="8" as="geometry" />
        </mxCell>
        <mxCell id="RkBvAHb7BvuQ-5vAJaDf-7" value="+ register: bool&#xa;+ login: bool&#xa;+ modifyInfo: bool&#xa;" style="text;strokeColor=none;fillColor=none;align=left;verticalAlign=top;spacingLeft=4;spacingRight=4;overflow=hidden;rotatable=0;points=[[0,0.5],[1,0.5]];portConstraint=eastwest;" vertex="1" parent="RkBvAHb7BvuQ-5vAJaDf-4">
          <mxGeometry y="98" width="160" height="110" as="geometry" />
        </mxCell>
        <mxCell id="RkBvAHb7BvuQ-5vAJaDf-13" value="Extends" style="endArrow=block;endSize=16;endFill=0;html=1;exitX=0.5;exitY=0;exitDx=0;exitDy=0;" edge="1" parent="WIyWlLk6GJQsqaUBKTNV-1" source="RkBvAHb7BvuQ-5vAJaDf-17" target="RkBvAHb7BvuQ-5vAJaDf-7">
          <mxGeometry width="160" relative="1" as="geometry">
            <mxPoint x="230" y="839.9999999999998" as="sourcePoint" />
            <mxPoint x="490" y="750" as="targetPoint" />
          </mxGeometry>
        </mxCell>
        <mxCell id="RkBvAHb7BvuQ-5vAJaDf-17" value="NormalUser" style="swimlane;fontStyle=1;align=center;verticalAlign=top;childLayout=stackLayout;horizontal=1;startSize=26;horizontalStack=0;resizeParent=1;resizeParentMax=0;resizeLast=0;collapsible=1;marginBottom=0;" vertex="1" parent="WIyWlLk6GJQsqaUBKTNV-1">
          <mxGeometry x="150" y="840" width="160" height="208" as="geometry" />
        </mxCell>
        <mxCell id="RkBvAHb7BvuQ-5vAJaDf-18" value="+ joinedClubs： list&#xa;+ joinedActivities: list&#xa;" style="text;strokeColor=none;fillColor=none;align=left;verticalAlign=top;spacingLeft=4;spacingRight=4;overflow=hidden;rotatable=0;points=[[0,0.5],[1,0.5]];portConstraint=eastwest;" vertex="1" parent="RkBvAHb7BvuQ-5vAJaDf-17">
          <mxGeometry y="26" width="160" height="64" as="geometry" />
        </mxCell>
        <mxCell id="RkBvAHb7BvuQ-5vAJaDf-19" value="" style="line;strokeWidth=1;fillColor=none;align=left;verticalAlign=middle;spacingTop=-1;spacingLeft=3;spacingRight=3;rotatable=0;labelPosition=right;points=[];portConstraint=eastwest;" vertex="1" parent="RkBvAHb7BvuQ-5vAJaDf-17">
          <mxGeometry y="90" width="160" height="8" as="geometry" />
        </mxCell>
        <mxCell id="RkBvAHb7BvuQ-5vAJaDf-20" value="+ getClubInfo: map&#xa;+ applyClub: bool&#xa;+ applyActivity: bool&#xa;&#xa;" style="text;strokeColor=none;fillColor=none;align=left;verticalAlign=top;spacingLeft=4;spacingRight=4;overflow=hidden;rotatable=0;points=[[0,0.5],[1,0.5]];portConstraint=eastwest;" vertex="1" parent="RkBvAHb7BvuQ-5vAJaDf-17">
          <mxGeometry y="98" width="160" height="110" as="geometry" />
        </mxCell>
        <mxCell id="RkBvAHb7BvuQ-5vAJaDf-25" value="0..n" style="text;html=1;align=center;verticalAlign=middle;resizable=0;points=[];autosize=1;" vertex="1" parent="WIyWlLk6GJQsqaUBKTNV-1">
          <mxGeometry x="480" y="740" width="40" height="20" as="geometry" />
        </mxCell>
        <mxCell id="RkBvAHb7BvuQ-5vAJaDf-26" value="Call" style="endArrow=open;endSize=12;dashed=1;html=1;exitX=1.002;exitY=0.071;exitDx=0;exitDy=0;entryX=0.706;entryY=1.022;entryDx=0;entryDy=0;entryPerimeter=0;exitPerimeter=0;" edge="1" parent="WIyWlLk6GJQsqaUBKTNV-1" source="RkBvAHb7BvuQ-5vAJaDf-17" target="RkBvAHb7BvuQ-5vAJaDf-3">
          <mxGeometry width="160" relative="1" as="geometry">
            <mxPoint x="450" y="810" as="sourcePoint" />
            <mxPoint x="620" y="880" as="targetPoint" />
            <Array as="points">
              <mxPoint x="573" y="855" />
            </Array>
          </mxGeometry>
        </mxCell>
        <mxCell id="RkBvAHb7BvuQ-5vAJaDf-27" value="" style="endArrow=classic;startArrow=classic;html=1;exitX=0.75;exitY=0;exitDx=0;exitDy=0;entryX=0.435;entryY=1.043;entryDx=0;entryDy=0;entryPerimeter=0;" edge="1" parent="WIyWlLk6GJQsqaUBKTNV-1" source="RkBvAHb7BvuQ-5vAJaDf-17" target="RkBvAHb7BvuQ-5vAJaDf-3">
          <mxGeometry width="50" height="50" relative="1" as="geometry">
            <mxPoint x="510" y="840" as="sourcePoint" />
            <mxPoint x="560" y="790" as="targetPoint" />
            <Array as="points">
              <mxPoint x="270" y="780" />
              <mxPoint x="530" y="780" />
            </Array>
          </mxGeometry>
        </mxCell>
        <mxCell id="RkBvAHb7BvuQ-5vAJaDf-28" value="0..n" style="text;html=1;align=center;verticalAlign=middle;resizable=0;points=[];autosize=1;" vertex="1" parent="WIyWlLk6GJQsqaUBKTNV-1">
          <mxGeometry x="270" y="810" width="40" height="20" as="geometry" />
        </mxCell>
        <mxCell id="RkBvAHb7BvuQ-5vAJaDf-29" value="Object(复用)" style="swimlane;fontStyle=1;align=center;verticalAlign=top;childLayout=stackLayout;horizontal=1;startSize=30;horizontalStack=0;resizeParent=1;resizeParentMax=0;resizeLast=0;collapsible=1;marginBottom=0;" vertex="1" parent="WIyWlLk6GJQsqaUBKTNV-1">
          <mxGeometry x="334" y="340" width="160" height="38" as="geometry" />
        </mxCell>
        <mxCell id="RkBvAHb7BvuQ-5vAJaDf-31" value="" style="line;strokeWidth=1;fillColor=none;align=left;verticalAlign=middle;spacingTop=-1;spacingLeft=3;spacingRight=3;rotatable=0;labelPosition=right;points=[];portConstraint=eastwest;" vertex="1" parent="RkBvAHb7BvuQ-5vAJaDf-29">
          <mxGeometry y="30" width="160" height="8" as="geometry" />
        </mxCell>
        <mxCell id="RkBvAHb7BvuQ-5vAJaDf-33" value="Extends" style="endArrow=block;endSize=16;endFill=0;html=1;exitX=0.5;exitY=0;exitDx=0;exitDy=0;entryX=0.5;entryY=1;entryDx=0;entryDy=0;" edge="1" parent="WIyWlLk6GJQsqaUBKTNV-1" source="RkBvAHb7BvuQ-5vAJaDf-4" target="RkBvAHb7BvuQ-5vAJaDf-29">
          <mxGeometry width="160" relative="1" as="geometry">
            <mxPoint x="450" y="530" as="sourcePoint" />
            <mxPoint x="610" y="530" as="targetPoint" />
            <Array as="points">
              <mxPoint x="230" y="440" />
              <mxPoint x="414" y="440" />
            </Array>
          </mxGeometry>
        </mxCell>
        <mxCell id="RkBvAHb7BvuQ-5vAJaDf-34" value="Extends" style="endArrow=block;endSize=16;endFill=0;html=1;exitX=0.5;exitY=0;exitDx=0;exitDy=0;entryX=0.5;entryY=1;entryDx=0;entryDy=0;" edge="1" parent="WIyWlLk6GJQsqaUBKTNV-1" source="RkBvAHb7BvuQ-5vAJaDf-0" target="RkBvAHb7BvuQ-5vAJaDf-29">
          <mxGeometry width="160" relative="1" as="geometry">
            <mxPoint x="240" y="530" as="sourcePoint" />
            <mxPoint x="410" y="350" as="targetPoint" />
            <Array as="points">
              <mxPoint x="540" y="440" />
              <mxPoint x="414" y="440" />
            </Array>
          </mxGeometry>
        </mxCell>
        <mxCell id="RkBvAHb7BvuQ-5vAJaDf-35" value="数据库管理" style="swimlane;fontStyle=1;align=center;verticalAlign=top;childLayout=stackLayout;horizontal=1;startSize=26;horizontalStack=0;resizeParent=1;resizeParentMax=0;resizeLast=0;collapsible=1;marginBottom=0;" vertex="1" parent="WIyWlLk6GJQsqaUBKTNV-1">
          <mxGeometry x="610" y="840" width="160" height="240" as="geometry" />
        </mxCell>
        <mxCell id="RkBvAHb7BvuQ-5vAJaDf-36" value="+ 数据库地址: string" style="text;strokeColor=none;fillColor=none;align=left;verticalAlign=top;spacingLeft=4;spacingRight=4;overflow=hidden;rotatable=0;points=[[0,0.5],[1,0.5]];portConstraint=eastwest;" vertex="1" parent="RkBvAHb7BvuQ-5vAJaDf-35">
          <mxGeometry y="26" width="160" height="64" as="geometry" />
        </mxCell>
        <mxCell id="RkBvAHb7BvuQ-5vAJaDf-37" value="" style="line;strokeWidth=1;fillColor=none;align=left;verticalAlign=middle;spacingTop=-1;spacingLeft=3;spacingRight=3;rotatable=0;labelPosition=right;points=[];portConstraint=eastwest;" vertex="1" parent="RkBvAHb7BvuQ-5vAJaDf-35">
          <mxGeometry y="90" width="160" height="8" as="geometry" />
        </mxCell>
        <mxCell id="RkBvAHb7BvuQ-5vAJaDf-38" value="+ 创建用户&#xa;+ 删除用户&#xa;+ 修改用户信息&#xa;+ 创建社团&#xa;+ 添加社团成员&#xa;+ 删除社团成员&#xa;+ 创建社团活动&#xa;+ 添加社团活动参加者&#xa;+ 删除社团活动参加者&#xa;&#xa;&#xa;" style="text;strokeColor=none;fillColor=none;align=left;verticalAlign=top;spacingLeft=4;spacingRight=4;overflow=hidden;rotatable=0;points=[[0,0.5],[1,0.5]];portConstraint=eastwest;" vertex="1" parent="RkBvAHb7BvuQ-5vAJaDf-35">
          <mxGeometry y="98" width="160" height="142" as="geometry" />
        </mxCell>
        <mxCell id="RkBvAHb7BvuQ-5vAJaDf-39" value="Call" style="endArrow=open;endSize=12;dashed=1;html=1;exitX=1;exitY=0.5;exitDx=0;exitDy=0;entryX=0;entryY=0.5;entryDx=0;entryDy=0;" edge="1" parent="WIyWlLk6GJQsqaUBKTNV-1" source="RkBvAHb7BvuQ-5vAJaDf-18" target="RkBvAHb7BvuQ-5vAJaDf-36">
          <mxGeometry width="160" relative="1" as="geometry">
            <mxPoint x="300" y="870" as="sourcePoint" />
            <mxPoint x="460" y="870" as="targetPoint" />
          </mxGeometry>
        </mxCell>
        <mxCell id="RkBvAHb7BvuQ-5vAJaDf-40" value="Call" style="endArrow=open;endSize=12;dashed=1;html=1;entryX=0.5;entryY=0;entryDx=0;entryDy=0;" edge="1" parent="WIyWlLk6GJQsqaUBKTNV-1" target="RkBvAHb7BvuQ-5vAJaDf-35">
          <mxGeometry width="160" relative="1" as="geometry">
            <mxPoint x="620" y="650" as="sourcePoint" />
            <mxPoint x="890" y="650.0000000000002" as="targetPoint" />
            <Array as="points">
              <mxPoint x="690" y="650" />
            </Array>
          </mxGeometry>
        </mxCell>
      </root>
    </mxGraphModel>
  </diagram>
</mxfile>
